<svg xmlns="http://www.w3.org/2000/svg" height="800" width="1200" viewBox="-299.74995 -401.062 2597.8329 2406.372"><path d="M320.334 1328.668s-12.333-40.002-34-61.668L73 1053.667C48.334 1029 0 981.002 0 911.001c0-70 59-120 130.333-148.667S1361.667 263 1447.667 227c86-36 209.667-91.333 265.667-118C1769.334 82.333 1928 7.25 1933.25 4.417 1938.5 1.584 1941.333 0 1943.833 0s4.834 2.167 4.834 5-1.834 6.75-2.417 8.667c-.583 1.917-48.583 144.666-86.583 193.333S1803 276.333 1621 340.333 223.665 831.001 192.999 843.001c-30.666 12-100 33.333-100 84.667 0 41.333 41.333 73.334 53.333 84 12 10.666 338.667 316.999 338.667 316.999H320.334z" fill="red"/><path d="M177 997.5S147.333 970 143.333 966s-12.667-18.999-12.667-29.666c0-10.667 2-36.334 47-50.334s1095.335-359.667 1152.668-377.667C1387.667 490.333 1726.25 378 1786.5 351c12.75-5.5 15-6.833 17-6.833s4.583 1.25 4.583 4.333-1.417 5.417-2.5 7.167S1746.5 476.5 1712.5 514s-64.5 64-126.5 79.5S557.5 869 551.25 870.75s-13.5 7.5-13.5 15.25c0 12.75 10.5 13.75 10.5 13.75zm21.5 19L284 1096l443.5-83.5s-11.5-7.25-11.5-15.625 6.75-13.875 14.875-15.5S1382 855.001 1422 848.001s92.666-18.667 135.666-70.667 84.709-121.459 86.084-123.584 1.875-3.375 1.875-4.625-.75-4.375-4-4.375-5 .75-8.25 2S198.5 1016.5 198.5 1016.5zm1257.5-117c-1.817.413-1151.667 215.833-1151.667 215.833L404 1207.499l531.835-66.999s-10-3.666-10-14 9.833-14.167 15.5-15.167 273.667-40.335 305.167-45.002c31.5-4.667 83.333-15.5 127-61.5s86.668-97 88.334-99c1.666-2 1.915-3.248 1.915-4.248S1462.5 898.5 1460 898.5c-.666 0-2.167.584-4 1zM1238.334 1329L975 1165l-547.333 64 106.667 100zm-847.114 76c3-.333 28.333-4 28.333-4v-29.667H239.667V1401s25.333 3.667 28.333 4c3 .333 16.333 3.333 16.333 18.333v37.669h-138.78v-37.669c0-15 13.333-18 16.333-18.333 3-.333 28.333-4 28.333-4v-29.667H10.333V1401s25.333 3.667 28.333 4c3 .333 16.333 3.333 16.333 18.333v121.256c0 15-13.333 18-16.333 18.333l-28.333 3.15v29.667h179.886v-29.667l-28.333-3.15c-3-.333-16.333-3.333-16.333-18.333v-37.92h138.78v37.92c0 15-13.333 18-16.333 18.333l-28.333 3.15v29.667h179.886v-29.667l-28.333-3.15c-3-.333-16.333-3.333-16.333-18.333v-121.256c0-15 13.333-18 16.333-18.333zm221.447-40.998c-116 0-183.667 42.098-183.667 120.123s67.667 120.123 183.667 120.123 183.667-42.098 183.667-120.123-67.667-120.123-183.667-120.123zm0 198.794c-22.667 0-79.667.662-79.667-78.671 0-79.333 57-78.671 79.667-78.671s79.667-.662 79.667 78.671c0 79.333-57 78.671-79.667 78.671zm446.5-161.296v-30.501h144.5v30s-25.167 2.501-30.042 3.126-15.625 5.5-15.625 19.25V1596h-111.667c-5.334 0-13.083-1.5-17.583-7-4.5-5.5-122.25-159.5-122.25-159.5v117c0 8.75 8.625 14.625 15 15.5s30.5 3.917 30.5 3.917V1596v-30.083V1596l-144.667.001v-30s25.167-2.501 30.042-3.126 15.625-5.5 15.625-19.25V1420.75c0-8.75-8.625-14.625-15-15.5s-30.5-3.5-30.5-3.5V1371h157.167c5.334 0 13.083 1.5 17.583 7 4.5 5.5 122.25 159.5 122.25 159.5v-117c0-8.75-8.625-14.625-15-15.5s-30.333-3.5-30.333-3.5V1371m392.502 0h-232.835v30.75s24.125 2.625 30.5 3.5 15 6.75 15 15.5v122.875c0 13.75-10.75 18.625-15.625 19.25s-30.042 3.126-30.042 3.126v30l233.002-.001c75.419 0 139.081-35 139.081-113.5S1519 1371 1451.669 1371zM1429 1553.334h-77.333v-139h77.667c28.667 0 57.333 9.666 57.333 68.333S1464 1553.334 1429 1553.334z" fill="red"/><path d="M1968 1562.625c-11.625-1.25-17.625-12.375-19.125-14.625s-106.25-162.125-110.375-168.125-12.375-8.5-16.625-8.5H1648v30.5s36.875 3.625 41.5 4.125 9.375 9 9.375 11.875-1.625 5.625-2.625 7.375-74.875 122.375-78.75 128.375-10.375 8.75-15.125 9.125-29.375 2.585-29.375 2.585v30.666h143.333v-29.666l-28.999-3.668c-6.5-1.167-8.333-8.5-8.333-10.333 0-1.833 1-4.667 2.833-7.5.414-.64 4.604-7.412 10.835-17.499h138.349a9956.94 9956.94 0 0111.535 17.499c1.833 2.833 2.833 5.667 2.833 7.5 0 1.833-1.833 9.166-8.333 10.333l-33.053 2.668v30.666h194.333v-29.666s-18.708-2.46-30.333-3.71zm-251.054-74.624c20.578-33.355 42.554-69.001 42.554-69.001s23.537 35.646 45.557 69.001z" fill="red"/></svg>