<svg xmlns="http://www.w3.org/2000/svg" height="800" width="1200" version="1.0" viewBox="-75 -34.0425 650 204.255"><g fill="#010202" fill-rule="evenodd"><path d="M144.984 19.153s2.736 2.126 2.736 11.551v53.488c0 6.386 1.828 8.208 5.473 8.208h17.326s-3.04-3.645-3.04-8.81V29.18c0-7.295-1.216-10.334-5.472-10.334s-17.023.307-17.023.307m35.258-.307s2.736 2.125 2.736 8.203v45.294c0 13.676 11.55 22.49 27.054 22.49 13.979 0 19.149-7.294 19.149-7.294s.913 5.164 5.775 5.164c4.861 0 16.412-.303 16.412-.303s-3.039-4.558-3.039-9.723V18.846h-22.49s2.736 3.952 2.736 9.42c0 5.472-.308 31.007-.308 37.69 0 6.685-2.429 14.59-13.07 14.59-10.637 0-12.157-10.636-12.157-14.59V25.838c0-3.644-2.125-7.294-4.861-7.294-2.737 0-17.937.303-17.937.303m80.243-.001s3.953 2.736 3.953 10.03v53.19c0 7.295-3.039 10.334-3.039 10.334h20.971s-2.736-3.342-2.736-10.334V41.341s8.511 17.321 13.68 25.833c5.165 8.511 9.73 9.122 13.985 9.42 4.256.303 6.073-.909 6.073-.909s10.334-28.877 15.504-37.085c-.606.61 0 38.297 0 44.683 0 6.381-3.04 9.42-3.04 9.42h23.102s-3.04-4.861-3.04-10.026V28.266c0-5.77 3.04-9.42 3.04-9.42s-18.543.307-22.799.307c-4.255 0-6.38 2.126-8.511 7.896-2.125 5.78-10.637 27.357-10.637 27.357s-10.94-22.49-13.373-27.958c-2.433-5.477-4.256-7.905-8.815-7.905-4.558 0-24.318.303-24.318.303m121.888 12.459s6.684-.303 8.815-.303c2.125 0 10.636 2.433 10.636 9.728 0 15.196-19.45 17.326-19.45 17.326zm-23.712-12.762h39.21c12.162 0 21.885 9.117 21.885 23.404 0 23.404-37.383 28.266-37.383 28.266v15.503c0 5.775-2.433 6.684-4.866 6.684H358.66s3.347-4.256 3.347-9.117V27.049c0-4.554-3.347-8.506-3.347-8.506"/><path d="M497.264 83.894V18.846H473.86s2.736 5.164 2.736 9.728v10.329c-9.435 1.067-18.602 5.755-28.569 12.444V18.846h-23.404s2.731 5.164 2.731 9.728v37.85c-33.5 25.152-79.817 58.403-165.955 59.109-111.246.908-143.161-60.788-143.161-60.788s15.806-6.386 15.806-23.101c0-13.681-10.642-23.101-20.97-23.101-10.34 0-32.83.61-32.83.61L78.42 0S63.83 1.52 39.21 1.52 1.822.308 1.822.308L0 23.1c7.295-3.039 29.482-4.558 29.482-4.558s-.302 22.49-.302 41.946c0 19.452-4.862 32.214-4.862 32.214l31.916-.303s-5.17-13.676-5.17-33.127v-40.73s20.668 1.211 23.707 3.039c1.902 1.137 3.04 3.039 3.04 5.17v56.53c0 4.257-2.732 9.421-2.732 9.421l24.616-.303s-2.428-3.953-2.428-7.295-.308-15.498-.308-15.498l3.044-.308s44.678 66.87 159.877 66.87c80.854 0 131.73-28.375 167.717-51.153.626 5.045 2.523 7.687 5.23 7.687h17.936s-2.736-3.645-2.736-8.81v-15.3c9.728-7.379 19.799-13.045 28.569-16.01v28.574c0 7.598 2.13 11.546 5.472 11.546H500s-2.736-3.645-2.736-8.81zM97.267 31.304h8.203c3.347 0 11.248 2.434 11.248 9.73 0 14.892-19.76 16.714-19.76 16.714l.309-26.443"/></g></svg>