<svg xmlns="http://www.w3.org/2000/svg" height="800" width="1200" viewBox="-35.12481 -20.17005 304.41502 121.0203"><path d="M14.6406.0001S-1.558 8.7511.1222 29.0818C1.8 49.4131 23.1467 67.8396 23.3072 68.4019l.0644.1458-12.8884 2.7933s-1.0866 6.037-4.5874 9.3392l123.989-27.4879-.867 5.4737 10.7696-2.3876 1.1757-5.6701 93.2023-20.5344-1.0347-4.956-4.9018.9906-5.0655-3.6463s-.9109 3.5552-4.5199 3.1466c-3.8965-.4408-3.6811-3.0326-3.3935-5.4893l1.3536-9.1986-12.4057.0616-.364 2.8335c-4.901-3.7532-10.9264-3.0832-10.9264-3.0832-12.6147 1.1462-15.1637 11.2999-15.1637 11.2999l-12.3144 7.1152s-.6224-11.8461-14.1054-10.3485c0 0-9.3114 1.2154-15.955 7.7303l-.7067 3.1655-14.9224 9.934s-.2682-8.0938-9.6203-11.9191c-1.0288-.4249-24.4668 22.9598-27.9428 25.848 0 0-4.165 3.2114-8.6573.799L86.2966 42.69s-6.2741-13.4585-19.9334-7.6162c0 0-8.8862 3.4911-9.378 12.1298L32.9916 65.1662s-1.6813-25.7759 24.4525-27.731c0 0-5.6733-5.5102-8.7557-12.4949-.1121-.2632.0036-.4169.0036-.4169S36.7136 28.216 30.5974 40.7943c-.0893.1862-3.9509 7.4108-4.6977 19.9587l-.0205.1966S4.2604 37.357 24.255 15.217c.1237-.135.0204-.1966.0204-.1966S16.6183 8.3765 14.6397 0zM72.644 44.0526c2.4609-.5549 3.6398 1.1136 3.6398 1.1136l-6.504 5.8911c-3.1881-3.471.7823-6.0925.9623-6.199.7049-.4133 1.334-.6776 1.902-.8057zm75.419-16.4319c2.9372-.7013 4.368 1.7304 4.5275 1.941 2.8217 3.6957-.5162 6.4151-.5286 6.423-3.4806 1.7242-5.6734-1.4156-5.7513-1.5417-2.8238-4.4903 1.1558-6.626 1.1558-6.626.209-.0762.4008-.1496.5966-.1963zm41.868-7.3614c2.7676-.6601 4.1286 1.6402 4.28 1.836 2.6573 3.4849-.5066 6.0313-.5182 6.0364-3.2811 1.625-5.3321-1.3082-5.4056-1.4263-2.6603-4.232 1.0776-6.2565 1.0776-6.2565.197-.0718.3816-.1456.5661-.1896zm-87.5287 21.2931s.0462.3009.193.4374c4.0346 3.7493-1.156 6.914-1.156 6.914-2.2432.7214-1.9498 1.7447-1.9498 1.7447l.4194 1.8915-13.7765 2.8302 16.2699-13.8177zM57.8006 52.7528c3.117 5.7953 10.813 6.1812 10.813 6.1812l-26.4853 5.4235 15.6723-11.6047zm75.0691-15.266l-1.6583 8.4019-11.9292 2.6446c1.4336-1.9656.9067-3.2739.9067-3.2739l12.6808-7.7726zm44.662-9.4852c.9181 5.626 4.5992 7.4627 4.5992 7.4627l-19.5122 4.1017c1.9369-1.3295 2.2086-4.0426 2.2086-4.0426s12.6723-7.7246 12.7043-7.5218zm-34.8478 13.3271c.675 1.0578 2.8057 1.6827 2.8057 1.6827l-3.4272.8558zm61.954-13.3508c.9677 1.2989 3.3952 2.032 3.3952 2.032l-5.034 1.116c1.3311-1.5728 1.6387-3.148 1.6387-3.148z" fill="#2e3192"/></svg>